Crispy Narrow Black-MinGrade.ufo
<glyph name="four" format="2">
  <advance width="765"/>
  <unicode hex="0034"/>
  <outline>
    <contour>
      <point x="397" y="0" type="line"/>
      <point x="671" y="0" type="line"/>
      <point x="671" y="707" type="line"/>
      <point x="748" y="707" type="line"/>
      <point x="748" y="880" type="line"/>
      <point x="671" y="880" type="line"/>
      <point x="671" y="1600" type="line"/>
      <point x="397" y="1600" type="line"/>
      <point x="397" y="880" type="line"/>
      <point x="301" y="880" type="line"/>
      <point x="301" y="987" type="line"/>
      <point x="357" y="1622" type="line"/>
      <point x="104" y="1650" type="line"/>
      <point x="28" y="986" type="line"/>
      <point x="28" y="707" type="line"/>
      <point x="397" y="707" type="line"/>
    </contour>
  </outline>
</glyph>
<glyph name="six" format="2">
  <advance width="717"/>
  <unicode hex="0036"/>
  <outline>
    <contour>
      <point x="31" y="0" type="line"/>
      <point x="689" y="0" type="line"/>
      <point x="689" y="868" type="line"/>
      <point x="305" y="868" type="line"/>
      <point x="305" y="1285" type="line"/>
      <point x="355" y="1427" type="line"/>
      <point x="410" y="1427" type="line"/>
      <point x="410" y="1098" type="line"/>
      <point x="683" y="1098" type="line"/>
      <point x="683" y="1600" type="line"/>
      <point x="145" y="1600" type="line"/>
      <point x="31" y="1296" type="line"/>
    </contour>
    <contour>
      <point x="415" y="696" type="line"/>
      <point x="415" y="173" type="line"/>
      <point x="305" y="173" type="line"/>
      <point x="305" y="696" type="line"/>
    </contour>
  </outline>
</glyph>
<glyph name="seven" format="2">
  <advance width="715"/>
  <unicode hex="0037"/>
  <outline>
    <contour>
      <point x="212" y="-31" type="line"/>
      <point x="465" y="-85" type="line"/>
      <point x="686" y="1272" type="line"/>
      <point x="686" y="1600" type="line"/>
      <point x="28" y="1600" type="line"/>
      <point x="28" y="1022" type="line"/>
      <point x="301" y="1022" type="line"/>
      <point x="301" y="1427" type="line"/>
      <point x="412" y="1427" type="line"/>
      <point x="412" y="1308" type="line"/>
    </contour>
  </outline>
</glyph>
<glyph name="greater" format="2">
  <advance width="427"/>
  <unicode hex="003E"/>
  <outline>
    <contour>
      <point x="66" y="537" type="line"/>
      <point x="403" y="699" type="line"/>
      <point x="403" y="864" type="line"/>
      <point x="65" y="1026" type="line"/>
      <point x="27" y="920" type="line"/>
      <point x="241" y="792" type="line"/>
      <point x="241" y="771" type="line"/>
      <point x="27" y="642" type="line"/>
    </contour>
  </outline>
</glyph>
<glyph name="question" format="2">
  <advance width="669"/>
  <unicode hex="003F"/>
  <outline>
    <contour>
      <point x="153" y="363" type="line"/>
      <point x="523" y="363" type="line"/>
      <point x="642" y="550" type="line"/>
      <point x="642" y="1600" type="line"/>
      <point x="33" y="1600" type="line"/>
      <point x="33" y="799" type="line"/>
      <point x="287" y="799" type="line"/>
      <point x="287" y="1462" type="line"/>
      <point x="389" y="1462" type="line"/>
      <point x="389" y="603" type="line"/>
      <point x="303" y="482" type="line"/>
      <point x="152" y="482" type="line"/>
    </contour>
    <contour>
      <point x="196" y="0" type="line"/>
      <point x="473" y="0" type="line"/>
      <point x="471" y="194" type="line"/>
      <point x="194" y="194" type="line"/>
    </contour>
  </outline>
</glyph>
<glyph name="D" format="2">
  <advance width="730"/>
  <unicode hex="0044"/>
  <outline>
    <contour>
      <point x="42" y="0" type="line"/>
      <point x="589" y="0" type="line"/>
      <point x="701" y="300" type="line"/>
      <point x="701" y="1600" type="line"/>
      <point x="42" y="1600" type="line"/>
    </contour>
    <contour>
      <point x="316" y="174" type="line"/>
      <point x="316" y="1426" type="line"/>
      <point x="428" y="1426" type="line"/>
      <point x="428" y="311" type="line"/>
      <point x="378" y="174" type="line"/>
    </contour>
  </outline>
</glyph>
<glyph name="F" format="2">
  <advance width="719"/>
  <unicode hex="0046"/>
  <outline>
    <contour>
      <point x="47" y="0" type="line"/>
      <point x="320" y="0" type="line"/>
      <point x="320" y="656" type="line"/>
      <point x="611" y="656" type="line"/>
      <point x="611" y="829" type="line"/>
      <point x="320" y="829" type="line"/>
      <point x="320" y="1426" type="line"/>
      <point x="418" y="1426" type="line"/>
      <point x="418" y="1058" type="line"/>
      <point x="691" y="1058" type="line"/>
      <point x="691" y="1600" type="line"/>
      <point x="47" y="1600" type="line"/>
    </contour>
  </outline>
</glyph>
<glyph name="backslash" format="2">
  <advance width="427"/>
  <unicode hex="005C"/>
  <outline>
    <contour>
      <point x="290" y="1673" type="line"/>
      <point x="20" y="1650" type="line"/>
      <point x="135" y="-58" type="line"/>
      <point x="406" y="-35" type="line"/>
    </contour>
  </outline>
</glyph>
<glyph name="a" format="2">
  <advance width="632"/>
  <unicode hex="0061"/>
  <outline>
    <contour>
      <point x="22" y="0" type="line"/>
      <point x="309" y="0" type="line"/>
      <point x="355" y="118" type="line"/>
      <point x="355" y="0" type="line"/>
      <point x="602" y="0" type="line"/>
      <point x="602" y="1225" type="line"/>
      <point x="116" y="1225" type="line"/>
      <point x="22" y="849" type="line"/>
    </contour>
    <contour>
      <point x="269" y="157" type="line"/>
      <point x="269" y="819" type="line"/>
      <point x="323" y="1068" type="line"/>
      <point x="355" y="1068" type="line"/>
      <point x="355" y="157" type="line"/>
    </contour>
  </outline>
</glyph>
<glyph name="c" format="2">
  <advance width="390"/>
  <unicode hex="0063"/>
  <outline>
    <contour>
      <point x="10" y="0" type="line"/>
      <point x="10" y="945" type="line"/>
      <point x="99" y="1200" type="line"/>
      <point x="394" y="1200" type="line"/>
      <point x="394" y="1042" type="line"/>
      <point x="306" y="1042" type="line"/>
      <point x="257" y="892" type="line"/>
      <point x="257" y="158" type="line"/>
      <point x="394" y="158" type="line"/>
      <point x="394" y="0" type="line"/>
    </contour>
  </outline>
</glyph>
<glyph name="d" format="2">
  <advance width="624"/>
  <unicode hex="0064"/>
  <outline>
    <contour>
      <point x="24" y="0" type="line"/>
      <point x="516" y="0" type="line"/>
      <point x="604" y="253" type="line"/>
      <point x="604" y="1700" type="line"/>
      <point x="357" y="1700" type="line"/>
      <point x="357" y="1200" type="line"/>
      <point x="113" y="1200" type="line"/>
      <point x="24" y="945" type="line"/>
    </contour>
    <contour>
      <point x="271" y="158" type="line"/>
      <point x="271" y="892" type="line"/>
      <point x="320" y="1042" type="line"/>
      <point x="357" y="1042" type="line"/>
      <point x="357" y="307" type="line"/>
      <point x="310" y="158" type="line"/>
    </contour>
  </outline>
</glyph>
<glyph name="e" format="2">
  <advance width="586"/>
  <unicode hex="0065"/>
  <outline>
    <contour>
      <point x="20" y="0" type="line"/>
      <point x="563" y="0" type="line"/>
      <point x="563" y="158" type="line"/>
      <point x="267" y="158" type="line"/>
      <point x="267" y="415" type="line"/>
      <point x="562" y="415" type="line"/>
      <point x="562" y="1225" type="line"/>
      <point x="109" y="1225" type="line"/>
      <point x="20" y="971" type="line"/>
    </contour>
    <contour>
      <point x="267" y="572" type="line"/>
      <point x="267" y="924" type="line"/>
      <point x="306" y="1050" type="line"/>
      <point x="331" y="1050" type="line"/>
      <point x="331" y="572" type="line"/>
    </contour>
  </outline>
</glyph>
<glyph name="f" format="2">
  <advance width="403"/>
  <unicode hex="0066"/>
  <outline>
    <contour>
      <point x="50" y="0" type="line"/>
      <point x="50" y="1347" type="line"/>
      <point x="141" y="1603" type="line"/>
      <point x="470" y="1603" type="line"/>
      <point x="470" y="1458" type="line"/>
      <point x="348" y="1458" type="line"/>
      <point x="297" y="1314" type="line"/>
      <point x="297" y="0" type="line"/>
    </contour>
    <contour>
      <point x="2" y="913" type="line"/>
      <point x="2" y="1080" type="line"/>
      <point x="63" y="1080" type="line"/>
      <point x="207" y="930" type="line"/>
      <point x="319" y="1104" type="line"/>
      <point x="418" y="1104" type="line"/>
      <point x="418" y="913" type="line"/>
    </contour>
  </outline>
</glyph>
<glyph name="i" format="2">
  <advance width="323"/>
  <unicode hex="0069"/>
  <outline>
    <contour>
      <point x="39" y="0" type="line"/>
      <point x="284" y="0" type="line"/>
      <point x="284" y="1200" type="line"/>
      <point x="39" y="1200" type="line"/>
    </contour>
    <contour>
      <point x="39" y="1274" type="line"/>
      <point x="285" y="1274" type="line"/>
      <point x="285" y="1431" type="line"/>
      <point x="39" y="1431" type="line"/>
    </contour>
  </outline>
</glyph>
<glyph name="j" format="2">
  <advance width="315"/>
  <unicode hex="006A"/>
  <outline>
    <contour>
      <point x="-105" y="-323" type="line"/>
      <point x="182" y="-323" type="line"/>
      <point x="286" y="-48" type="line"/>
      <point x="286" y="1226" type="line"/>
      <point x="38" y="1226" type="line"/>
      <point x="38" y="1" type="line"/>
      <point x="-23" y="-165" type="line"/>
      <point x="-105" y="-165" type="line"/>
    </contour>
    <contour>
      <point x="38" y="1319" type="line"/>
      <point x="38" y="1469" type="line"/>
      <point x="284" y="1469" type="line"/>
      <point x="284" y="1319" type="line"/>
    </contour>
  </outline>
</glyph>
<glyph name="m" format="2">
  <advance width="952"/>
  <unicode hex="006D"/>
  <outline>
    <contour>
      <point x="29" y="0" type="line"/>
      <point x="276" y="0" type="line"/>
      <point x="276" y="930" type="line"/>
      <point x="326" y="1079" type="line"/>
      <point x="352" y="1079" type="line"/>
      <point x="352" y="0" type="line"/>
      <point x="599" y="0" type="line"/>
      <point x="599" y="1225" type="line"/>
      <point x="118" y="1225" type="line"/>
      <point x="29" y="969" type="line"/>
    </contour>
    <contour>
      <point x="672" y="-2" type="line"/>
      <point x="917" y="-2" type="line"/>
      <point x="917" y="1225" type="line"/>
      <point x="682" y="1225" type="line"/>
      <point x="566" y="1092" type="line"/>
      <point x="566" y="1078" type="line"/>
      <point x="672" y="1078" type="line"/>
    </contour>
  </outline>
</glyph>
<glyph name="n" format="2">
  <advance width="629"/>
  <unicode hex="006E"/>
  <outline>
    <contour>
      <point x="24" y="0" type="line"/>
      <point x="271" y="0" type="line"/>
      <point x="271" y="895" type="line"/>
      <point x="320" y="1046" type="line"/>
      <point x="352" y="1046" type="line"/>
      <point x="352" y="0" type="line"/>
      <point x="599" y="0" type="line"/>
      <point x="599" y="1200" type="line"/>
      <point x="114" y="1200" type="line"/>
      <point x="24" y="933" type="line"/>
    </contour>
  </outline>
</glyph>
<glyph name="q" format="2">
  <advance width="632"/>
  <unicode hex="0071"/>
  <outline>
    <contour>
      <point x="23" y="0" type="line"/>
      <point x="309" y="0" type="line"/>
      <point x="355" y="118" type="line"/>
      <point x="355" y="-300" type="line"/>
      <point x="602" y="-300" type="line"/>
      <point x="602" y="1200" type="line"/>
      <point x="117" y="1200" type="line"/>
      <point x="23" y="823" type="line"/>
    </contour>
    <contour>
      <point x="270" y="157" type="line"/>
      <point x="270" y="794" type="line"/>
      <point x="324" y="1042" type="line"/>
      <point x="355" y="1042" type="line"/>
      <point x="355" y="157" type="line"/>
    </contour>
  </outline>
</glyph>
<glyph name="r" format="2">
  <advance width="355"/>
  <unicode hex="0072"/>
  <outline>
    <contour>
      <point x="379" y="1019" type="line"/>
      <point x="310" y="1019" type="line"/>
      <point x="261" y="880" type="line"/>
      <point x="261" y="0" type="line"/>
      <point x="14" y="0" type="line"/>
      <point x="14" y="911" type="line"/>
      <point x="120" y="1200" type="line"/>
      <point x="379" y="1200" type="line"/>
    </contour>
  </outline>
</glyph>
<glyph name="t" format="2">
  <advance width="358"/>
  <unicode hex="0074"/>
  <outline>
    <contour>
      <point x="0" y="0" type="line" smooth="yes"/>
      <point x="375" y="0" type="line"/>
      <point x="375" y="166" type="line"/>
      <point x="250" y="166" type="line" smooth="yes"/>
      <point x="250" y="1600" type="line"/>
      <point x="0" y="1600" type="line" smooth="yes"/>
    </contour>
    <contour>
      <point x="188" y="953" type="line"/>
      <point x="380" y="953" type="line"/>
      <point x="380" y="1200" type="line"/>
      <point x="319" y="1200" type="line"/>
      <point x="188" y="1019" type="line"/>
    </contour>
  </outline>
</glyph>
<glyph name="u" format="2">
  <advance width="632"/>
  <unicode hex="0075"/>
  <outline>
    <contour>
      <point x="31" y="0" type="line"/>
      <point x="312" y="0" type="line"/>
      <point x="363" y="135" type="line"/>
      <point x="403" y="0" type="line"/>
      <point x="602" y="0" type="line"/>
      <point x="602" y="1225" type="line"/>
      <point x="355" y="1225" type="line"/>
      <point x="355" y="157" type="line"/>
      <point x="278" y="157" type="line"/>
      <point x="278" y="1225" type="line"/>
      <point x="31" y="1225" type="line"/>
    </contour>
  </outline>
</glyph>
<glyph name="y" format="2">
  <advance width="618"/>
  <unicode hex="0079"/>
  <outline>
    <contour>
      <point x="61" y="0" type="line"/>
      <point x="316" y="0" type="line"/>
      <point x="295" y="-374" type="line"/>
      <point x="534" y="-388" type="line"/>
      <point x="605" y="1223" type="line"/>
      <point x="366" y="1235" type="line"/>
      <point x="328" y="156" type="line"/>
      <point x="286" y="156" type="line"/>
      <point x="264" y="1235" type="line"/>
      <point x="25" y="1223" type="line"/>
    </contour>
  </outline>
</glyph>
<glyph name="braceleft" format="2">
  <advance width="426"/>
  <unicode hex="007B"/>
  <outline>
    <contour>
      <point x="326" y="877" type="line"/>
      <point x="326" y="1512" type="line"/>
      <point x="419" y="1512" type="line"/>
      <point x="419" y="1686" type="line"/>
      <point x="72" y="1686" type="line"/>
      <point x="72" y="878" type="line"/>
      <point x="7" y="801" type="line"/>
      <point x="7" y="799" type="line"/>
      <point x="72" y="722" type="line"/>
      <point x="72" y="-86" type="line"/>
      <point x="414" y="-86" type="line"/>
      <point x="414" y="88" type="line"/>
      <point x="326" y="88" type="line"/>
      <point x="326" y="723" type="line"/>
      <point x="261" y="799" type="line"/>
      <point x="261" y="801" type="line"/>
    </contour>
  </outline>
</glyph>
<glyph name="emdash" format="2">
  <advance width="462"/>
  <unicode hex="2014"/>
  <outline>
    <contour>
      <point x="-159" y="717" type="line"/>
      <point x="620" y="717" type="line"/>
      <point x="620" y="890" type="line"/>
      <point x="-159" y="890" type="line"/>
    </contour>
  </outline>
</glyph>
<glyph name="quoteleft" format="2">
  <advance width="338"/>
  <unicode hex="2018"/>
  <outline>
    <contour>
      <point x="308" y="1600" type="line"/>
      <point x="89" y="1600" type="line"/>
      <point x="27" y="1178" type="line"/>
      <point x="300" y="1178" type="line"/>
    </contour>
  </outline>
</glyph>
<glyph name="euro" format="2">
  <advance width="855"/>
  <unicode hex="20AC"/>
  <outline>
    <contour>
      <point x="654" y="640" type="line"/>
      <point x="654" y="768" type="line"/>
      <point x="31" y="768" type="line"/>
      <point x="31" y="640" type="line"/>
    </contour>
    <contour>
      <point x="654" y="842" type="line"/>
      <point x="654" y="971" type="line"/>
      <point x="31" y="971" type="line"/>
      <point x="31" y="842" type="line"/>
    </contour>
    <contour>
      <point x="269" y="1600" type="line"/>
      <point x="156" y="1339" type="line"/>
      <point x="156" y="0" type="line"/>
      <point x="785" y="0" type="line"/>
      <point x="785" y="520" type="line"/>
      <point x="534" y="520" type="line"/>
      <point x="534" y="173" type="line"/>
      <point x="429" y="173" type="line"/>
      <point x="429" y="1272" type="line"/>
      <point x="480" y="1427" type="line"/>
      <point x="535" y="1427" type="line"/>
      <point x="535" y="1091" type="line"/>
      <point x="786" y="1091" type="line"/>
      <point x="786" y="1600" type="line"/>
    </contour>
  </outline>
</glyph>
<glyph name="minus" format="2">
  <advance width="494"/>
  <unicode hex="2212"/>
  <outline>
    <contour>
      <point x="-19" y="730" type="line"/>
      <point x="514" y="730" type="line"/>
      <point x="514" y="879" type="line"/>
      <point x="-19" y="879" type="line"/>
    </contour>
  </outline>
</glyph>
<glyph name="G.wide" format="2">
  <advance width="752"/>
  <outline>
    <contour>
      <point x="34" y="0" type="line"/>
      <point x="703" y="0" type="line"/>
      <point x="703" y="907" type="line"/>
      <point x="363" y="907" type="line"/>
      <point x="363" y="734" type="line"/>
      <point x="432" y="734" type="line"/>
      <point x="432" y="173" type="line"/>
      <point x="308" y="173" type="line"/>
      <point x="308" y="1227" type="line"/>
      <point x="345" y="1427" type="line"/>
      <point x="703" y="1427" type="line"/>
      <point x="704" y="1600" type="line"/>
      <point x="96" y="1600" type="line"/>
      <point x="34" y="1235" type="line"/>
    </contour>
  </outline>
</glyph>
<glyph name="S.wide" format="2">
  <advance width="714"/>
  <outline>
    <contour>
      <point x="31" y="0" type="line"/>
      <point x="542" y="0" type="line"/>
      <point x="653" y="292" type="line"/>
      <point x="653" y="892" type="line"/>
      <point x="301" y="892" type="line"/>
      <point x="301" y="1279" type="line"/>
      <point x="358" y="1436" type="line"/>
      <point x="640" y="1436" type="line"/>
      <point x="640" y="1600" type="line"/>
      <point x="143" y="1600" type="line"/>
      <point x="32" y="1290" type="line"/>
      <point x="32" y="710" type="line"/>
      <point x="381" y="710" type="line"/>
      <point x="381" y="302" type="line"/>
      <point x="329" y="167" type="line"/>
      <point x="31" y="167" type="line"/>
    </contour>
  </outline>
</glyph>
<glyph name="nine.smol" format="2">
  <advance width="458"/>
  <outline>
    <contour>
      <point x="449" y="1108" type="line"/>
      <point x="9" y="1108" type="line"/>
      <point x="9" y="508" type="line"/>
      <point x="268" y="508" type="line"/>
      <point x="268" y="216" type="line"/>
      <point x="234" y="118" type="line"/>
      <point x="194" y="118" type="line"/>
      <point x="194" y="347" type="line"/>
      <point x="13" y="347" type="line"/>
      <point x="13" y="0" type="line"/>
      <point x="374" y="0" type="line"/>
      <point x="449" y="209" type="line"/>
    </contour>
    <contour>
      <point x="191" y="625" type="line"/>
      <point x="191" y="989" type="line"/>
      <point x="268" y="989" type="line"/>
      <point x="268" y="625" type="line"/>
    </contour>
  </outline>
</glyph>
<glyph name="six.smol" format="2">
  <advance width="459"/>
  <outline>
    <contour>
      <point x="9" y="0" type="line"/>
      <point x="449" y="0" type="line"/>
      <point x="449" y="600" type="line"/>
      <point x="190" y="600" type="line"/>
      <point x="190" y="891" type="line"/>
      <point x="224" y="989" type="line"/>
      <point x="264" y="989" type="line"/>
      <point x="264" y="761" type="line"/>
      <point x="445" y="761" type="line"/>
      <point x="445" y="1108" type="line"/>
      <point x="84" y="1108" type="line"/>
      <point x="9" y="899" type="line"/>
    </contour>
    <contour>
      <point x="267" y="482" type="line"/>
      <point x="267" y="118" type="line"/>
      <point x="190" y="118" type="line"/>
      <point x="190" y="482" type="line"/>
    </contour>
  </outline>
</glyph>
